HIERARCHY
ROOT hips
{
  OFFSET 0 11.86390953 0.3628582958
  CHANNELS 6 Xposition Yposition Zposition Yrotation Xrotation Zrotation
  JOINT spine
  {
    OFFSET 0 0.05383551117999996 0
    CHANNELS 3 Yrotation Xrotation Zrotation
    JOINT chest
    {
      OFFSET 0 0.6394558760401424 0
      CHANNELS 3 Yrotation Xrotation Zrotation
      JOINT neck
      {
        OFFSET 0 2.720089088562982 0
        CHANNELS 3 Yrotation Xrotation Zrotation
        JOINT head
        {
          OFFSET 0 0.37880844870545777 0
          CHANNELS 3 Yrotation Xrotation Zrotation
          JOINT rightEye
          {
            OFFSET -0.42867780714 0.7547055649100001 0.7381831347
            CHANNELS 3 Yrotation Xrotation Zrotation
            End Site
            {
              OFFSET -0.42867780714 0.7547055649100001 0.7381831347
            }
          }
          JOINT leftEye
          {
            OFFSET 0.428676479 0.7547055559999993 0.7381844503
            CHANNELS 3 Yrotation Xrotation Zrotation
            End Site
            {
              OFFSET 0.428676479 0.7547055559999993 0.7381844503
            }
          }
          JOINT jaw
          {
            OFFSET -0.18933892286100001 1.5626303011000007 1.137441874206
            CHANNELS 3 Yrotation Xrotation Zrotation
            End Site
            {
              OFFSET -0.18933892286100001 1.5626303011000007 1.137441874206
            }
          }
        }
      }
      JOINT rightShoulder
      {
        OFFSET -0.6795351508 2.0665205 0
        CHANNELS 3 Yrotation Xrotation Zrotation
        JOINT rightUpperArm
        {
          OFFSET -0.7287400483531672 0 0
          CHANNELS 3 Yrotation Xrotation Zrotation
          JOINT rightLowerArm
          {
            OFFSET -1.9872982039174532 0 0
            CHANNELS 3 Yrotation Xrotation Zrotation
            JOINT rightHand
            {
              OFFSET -2.6451847532219275 0 0
              CHANNELS 3 Yrotation Xrotation Zrotation
              JOINT rightLittleProximal
              {
                OFFSET -0.8008804099999995 -0.09592044000000044 -0.26183688629999996
                CHANNELS 3 Yrotation Xrotation Zrotation
                JOINT rightLittleIntermediate
                {
                  OFFSET -0.2473955153999997 -0.02541697026000067 0.002370178700999967
                  CHANNELS 3 Yrotation Xrotation Zrotation
                  JOINT rightLittleDistal
                  {
                    OFFSET -0.163687229200001 -0.015790700860001117 -0.0004274845300000635
                    CHANNELS 3 Yrotation Xrotation Zrotation
                    End Site
                    {
                      OFFSET -0.163687229200001 -0.015790700860001117 -0.0004274845300000635
                    }
                  }
                }
              }
              JOINT rightRingProximal
              {
                OFFSET -0.8393382799999985 -0.06223833561000025 -0.09213143500000005
                CHANNELS 3 Yrotation Xrotation Zrotation
                JOINT rightRingIntermediate
                {
                  OFFSET -0.3284497260000011 -0.03264224524000103 0.009408593183000052
                  CHANNELS 3 Yrotation Xrotation Zrotation
                  JOINT rightRingDistal
                  {
                    OFFSET -0.19447660429999902 -0.021730899850000318 0.003074347969000052
                    CHANNELS 3 Yrotation Xrotation Zrotation
                    End Site
                    {
                      OFFSET -0.19447660429999902 -0.021730899850000318 0.003074347969000052
                    }
                  }
                }
              }
              JOINT rightMiddleProximal
              {
                OFFSET -0.8473005199999989 -0.06735503500000095 0.10541820299999995
                CHANNELS 3 Yrotation Xrotation Zrotation
                JOINT rightMiddleIntermediate
                {
                  OFFSET -0.3450455799999995 -0.02481901642000084 0.019012570390000032
                  CHANNELS 3 Yrotation Xrotation Zrotation
                  JOINT rightMiddleDistal
                  {
                    OFFSET -0.23542332000000088 -0.025003910029999243 0.0075583457949999905
                    CHANNELS 3 Yrotation Xrotation Zrotation
                    End Site
                    {
                      OFFSET -0.23542332000000088 -0.025003910029999243 0.0075583457949999905
                    }
                  }
                }
              }
              JOINT rightIndexProximal
              {
                OFFSET -0.8008568281999987 -0.09897839600000169 0.29462796
                CHANNELS 3 Yrotation Xrotation Zrotation
                JOINT rightIndexIntermediate
                {
                  OFFSET -0.30524754480000016 -0.024634122809999992 0.02743375304999998
                  CHANNELS 3 Yrotation Xrotation Zrotation
                  JOINT rightIndexDistal
                  {
                    OFFSET -0.23067378950000017 -0.016876459159999913 0.008484125099999983
                    CHANNELS 3 Yrotation Xrotation Zrotation
                    End Site
                    {
                      OFFSET -0.23067378950000017 -0.016876459159999913 0.008484125099999983
                    }
                  }
                }
              }
              JOINT rightThumbProximal
              {
                OFFSET -0.25574064999999935 -0.12833189930000155 0.22385698609999993
                CHANNELS 3 Yrotation Xrotation Zrotation
                JOINT rightThumbIntermediate
                {
                  OFFSET -0.22791743260000086 -0.07103586192999978 0.27385039
                  CHANNELS 3 Yrotation Xrotation Zrotation
                  JOINT rightThumbDistal
                  {
                    OFFSET -0.13610267659999975 -0.03369390969999997 0.14246511509999996
                    CHANNELS 3 Yrotation Xrotation Zrotation
                    End Site
                    {
                      OFFSET -0.13610267659999975 -0.03369390969999997 0.14246511509999996
                    }
                  }
                }
              }
            }
          }
        }
      }
      JOINT leftShoulder
      {
        OFFSET 0.6795338396 2.0665205 0
        CHANNELS 3 Yrotation Xrotation Zrotation
        JOINT leftUpperArm
        {
          OFFSET 0.7287383950230443 0 0
          CHANNELS 3 Yrotation Xrotation Zrotation
          JOINT leftLowerArm
          {
            OFFSET 1.9872997282019604 0 0
            CHANNELS 3 Yrotation Xrotation Zrotation
            JOINT leftHand
            {
              OFFSET 2.6451820781302327 0 0
              CHANNELS 3 Yrotation Xrotation Zrotation
              JOINT leftLittleProximal
              {
                OFFSET 0.8008804099999995 -0.09592306899999814 -0.2618342639000001
                CHANNELS 3 Yrotation Xrotation Zrotation
                JOINT leftLittleIntermediate
                {
                  OFFSET 0.2473981400000007 -0.02542352681000093 0.0023609995859999455
                  CHANNELS 3 Yrotation Xrotation Zrotation
                  JOINT leftLittleDistal
                  {
                    OFFSET 0.1636846068000002 -0.015794634789999318 -0.00043272972159996703
                    CHANNELS 3 Yrotation Xrotation Zrotation
                    End Site
                    {
                      OFFSET 0.1636846068000002 -0.015794634789999318 -0.00043272972159996703
                    }
                  }
                }
              }
              JOINT leftRingProximal
              {
                OFFSET 0.8393409199999996 -0.062242267999998324 -0.0921281570000001
                CHANNELS 3 Yrotation Xrotation Zrotation
                JOINT leftRingIntermediate
                {
                  OFFSET 0.3284471036000003 -0.03264224524000103 0.009405970574000042
                  CHANNELS 3 Yrotation Xrotation Zrotation
                  JOINT leftRingDistal
                  {
                    OFFSET 0.1944779099999996 -0.021732211159998904 0.003073036670000001
                    CHANNELS 3 Yrotation Xrotation Zrotation
                    End Site
                    {
                      OFFSET 0.1944779099999996 -0.021732211159998904 0.003073036670000001
                    }
                  }
                }
              }
              JOINT leftMiddleProximal
              {
                OFFSET 0.8473005200000001 -0.06736028199999788 0.1054214809999999
                CHANNELS 3 Yrotation Xrotation Zrotation
                JOINT leftMiddleIntermediate
                {
                  OFFSET 0.3450455799999995 -0.024824261000000014 0.019013225990000007
                  CHANNELS 3 Yrotation Xrotation Zrotation
                  JOINT leftMiddleDistal
                  {
                    OFFSET 0.2354259489999998 -0.025005222000000327 0.0075590014499999705
                    CHANNELS 3 Yrotation Xrotation Zrotation
                    End Site
                    {
                      OFFSET 0.2354259489999998 -0.025005222000000327 0.0075590014499999705
                    }
                  }
                }
              }
              JOINT leftIndexProximal
              {
                OFFSET 0.8008594516999996 -0.09898495199999946 0.29463124239999994
                CHANNELS 3 Yrotation Xrotation Zrotation
                JOINT leftIndexIntermediate
                {
                  OFFSET 0.30524754480000016 -0.024632811499998963 0.02743047472
                  CHANNELS 3 Yrotation Xrotation Zrotation
                  JOINT leftIndexDistal
                  {
                    OFFSET 0.23067378950000017 -0.016876459159999913 0.008481502700000004
                    CHANNELS 3 Yrotation Xrotation Zrotation
                    End Site
                    {
                      OFFSET 0.23067378950000017 -0.016876459159999913 0.008481502700000004
                    }
                  }
                }
              }
              JOINT leftThumbProximal
              {
                OFFSET 0.25574326469999953 -0.12833321050000013 0.22385764169999997
                CHANNELS 3 Yrotation Xrotation Zrotation
                JOINT leftThumbIntermediate
                {
                  OFFSET 0.22804987480000094 -0.07138466829999968 0.273648441
                  CHANNELS 3 Yrotation Xrotation Zrotation
                  JOINT leftThumbDistal
                  {
                    OFFSET 0.13614857189999907 -0.033867001519998885 0.14238119169999996
                    CHANNELS 3 Yrotation Xrotation Zrotation
                    End Site
                    {
                      OFFSET 0.13614857189999907 -0.033867001519998885 0.14238119169999996
                    }
                  }
                }
              }
            }
          }
        }
      }
    }
  }
  JOINT rightUpperLeg
  {
    OFFSET -0.9749898906000001 -1.8495733739999998 0
    CHANNELS 3 Yrotation Xrotation Zrotation
    JOINT rightLowerLeg
    {
      OFFSET 0 -4.1566544686813165 0
      CHANNELS 3 Yrotation Xrotation Zrotation
      JOINT rightFoot
      {
        OFFSET 0.14539718599999998 -4.225553926 -0.3666210900000001
        CHANNELS 3 Yrotation Xrotation Zrotation
        JOINT rightToes
        {
          OFFSET 0.1706738473 -0.9584117400000015 1.0093348617
          CHANNELS 3 Yrotation Xrotation Zrotation
          End Site
          {
            OFFSET 0.1706738473 -0.9584117400000015 1.0093348617
          }
        }
      }
    }
  }
  JOINT leftUpperLeg
  {
    OFFSET 0.9749898906000001 -1.8495733739999998 0
    CHANNELS 3 Yrotation Xrotation Zrotation
    JOINT leftLowerLeg
    {
      OFFSET 0 -4.156653488267941 0
      CHANNELS 3 Yrotation Xrotation Zrotation
      JOINT leftFoot
      {
        OFFSET -0.14537357999999995 -4.225555399999999 -0.36661124279999996
        CHANNELS 3 Yrotation Xrotation Zrotation
        JOINT leftToes
        {
          OFFSET -0.17066467000000002 -0.9584157000000019 1.0093348617
          CHANNELS 3 Yrotation Xrotation Zrotation
          End Site
          {
            OFFSET -0.17066467000000002 -0.9584157000000019 1.0093348617
          }
        }
      }
    }
  }
}
MOTION
Frames: 4
Frame Time: 0.03333333333333333
0.05561336129903793 -0.3034484856884774 0.027737630531191826 1.509483093258638 -0.8959183785069365 -5.442647942484638 -1.1587020701108386 1.2977128500581172 3.0458407039297235 1.2666113660741938 1.3390463305040823 11.80854071286975 -0.3326692991740765 1.0447759928241993 -2.165940210015488 0.43950537782967325 1.5774776887954607 -8.134704361727904 0 0 0 0 0 0 0 0 0 3.4051751164043913 4.498126353602484 5.6956864504111815 1.3394143090367607 -1.6742192121220127 67.30132592129479 17.735259065331746 0.03517842128783935 -0.22547557336579802 -9.163833749471715 -11.056648216170666 12.027363642965984 -15.602424658259586 5.214469710223793 35.64274671496486 -3.4992898999839688 1.043041904179767 45.609298415605735 -0.03322871135727713 -0.8197382845576606 22.123056888260525 -11.331867964267467 2.4322617943647846 26.554264994996654 -3.433832450549122 1.538934872060522 40.16025811621379 0.24966440247693014 -0.1871660990531586 17.812867186437913 -8.623131937666097 0.8982385793295135 15.807235838727879 -3.4932493434776677 0.7745435635997578 33.39059643477188 -1.523084157060912 0.1875245258180921 15.91335976226347 -4.588713848499779 0.33648920269441485 7.8770470493892155 -2.5349393771573343 0.3365389892288628 20.583278499913618 -0.04944281523426873 -0.2147187182675772 13.845813927109372 -0.4730902428738936 18.648796673076934 -11.237339380826674 -31.738199635372794 0.8893862173572943 3.166385858989626 -7.6987611750170535 1.6458657622640465 1.1069089817047748 -13.854260389052625 3.4969956175354384 -5.725240765489268 2.7835556056362307 3.370358526409469 -83.51891603708746 -14.505515298880319 0.023573759922695725 0.18538537097481686 4.035406099267498 -27.542701368945366 -11.331071123545732 15.842055615600941 5.385659294591683 -35.62555669030285 3.461921095682633 1.3046944633951887 -45.60494698060221 2.573239640959707 0.5107372539734464 -20.536087876226805 11.348363226061448 2.4405387145976944 -26.553765055619063 3.4098113490979487 1.5344382433611672 -40.160091570133275 1.589819479411734 0.5033850144652118 -19.3510651233519 8.564245652066028 0.8816039949620699 -15.80728666375763 3.586448843308094 0.7958270976632391 -33.391468298963176 1.3339381931905023 0.154079995280422 -12.278669923392458 4.564989273724407 0.3332203410616131 -7.876671864304439 2.5749939773228996 0.3426814649097921 -20.583686225363625 0.6785087733379226 0.02293382150406229 -10.178993943330807 0.36210413516096185 18.625557510393257 11.179685140829122 31.852903233191704 0.9234769698144717 -3.1230039606186697 8.671552857260314 1.8057939216487455 -0.29954783779509564 -4.773918140753892 -1.2170903671705542 11.019286011546775 -5.163923093561389 11.949102618960323 2.2609898891391076 0.9368612484481323 -9.8095591973101 -8.159360373615026 -0.000018220843176572306 -0.5862968081658037 -0.0000029320612143330783 11.361824399160803 -20.26616052521161 12.247640023921042 10.412458574154057 24.072945256384642 6.507200981617044 3.4294527090190416 -3.4845484090827163 -11.28324227833746 -0.000021016956804727777 -0.4734909646534973 -1.8866458125631838e-7
0.05629655346274376 -0.3033159249584969 0.029347669333219528 1.5104902724522735 -0.8920232024538669 -5.4450625942029705 -1.1545356740233204 1.2949107948662226 3.042855638107421 1.2683817685713838 1.3355724465514542 11.811031263953668 -0.32763252836906326 1.0457885234206394 -2.168690666238047 0.4663690704870457 1.5776263017375152 -8.148635763944952 0 0 0 0 0 0 0 0 0 3.415650848064045 4.497366717015693 5.70834829135154 1.3239148477064127 -1.6700202728730502 67.29616289606948 17.736486539049686 0.035192782030081464 -0.22546724913566624 -9.1590522085416 -11.057412877794174 12.010103296419615 -15.602369580382984 5.21442384351501 35.64195379607092 -3.4992355689907786 1.043004758871485 45.608542412202034 -0.03314635046999299 -0.8197305464420394 22.12228786553894 -11.33182170770182 2.4321707854839523 26.553467038133395 -3.433789405372566 1.5388905665723518 40.159489971910205 0.249740788220711 -0.18717558399536982 17.81210685017992 -8.623150178521275 0.8982527750608538 15.807480274453658 -3.493270858211676 0.774547939589537 33.39086261708842 -1.5231111482568964 0.18754242848013272 15.91363653282299 -4.588732419332566 0.3364969668324069 7.8772859976618195 -2.5349621936470963 0.33653493373408583 20.583511932563276 -0.04947134346984083 -0.2147054846831391 13.846074842551788 -0.4723104128160727 18.64864529107115 -11.236895532792227 -31.737498369292375 0.8891496935696648 3.1665392731416904 -7.698027134965496 1.6457025174348296 1.1070772131213746 -13.830893951622189 3.5009206880466346 -5.716324016746483 2.7958934327807774 3.3596970019612016 -83.52863932878478 -14.498520222382274 0.023548610283591235 0.18529927368288407 4.036720921173177 -27.543184747233582 -11.346858377866454 15.842006384242683 5.3856125576087805 -35.62479784752545 3.461870808757618 1.3046547526258194 -45.604169142953246 2.573177435762371 0.510706837078912 -20.535327603941898 11.348313616501363 2.4404457824228905 -26.552996139105378 3.4097715014977417 1.5343992759656115 -40.15931339144919 1.5897542950342585 0.5033475537008203 -19.35027391639154 8.564263892121899 0.8816186175667545 -15.807558537082569 3.5864692957188966 0.7958349958313458 -33.39172689967024 1.3339525967680013 0.1540860517591256 -12.278938383796202 4.565018056702957 0.3332115363719881 -7.876968412613826 2.575019078865886 0.34267735605063077 -20.58397042141102 0.6785345448250321 0.022954228696875925 -10.179263737144428 0.36133959240049024 18.6254277721284 11.179230428828866 31.852180237965538 0.9232399101227352 -3.1231635588859574 8.670820107160054 1.8056200923927666 -0.2997066451630173 -4.771242083439157 -1.2043427083898108 11.017189721971054 -5.153371207580933 11.933419213750511 2.264161752165122 0.9365041072940906 -9.809184894808672 -8.155952324569705 -0.000010136505608787339 -0.592899549447234 0.000002084144513477303 11.361774309712299 -20.27117170238469 12.248927629239803 10.41390279022182 24.08920584822033 6.509600046768533 3.4251412514045043 -3.4838262758972127 -11.28237788916151 0.0000063386872518885126 -0.47305776647107617 -0.00000429879822035042
0.05764736980199814 -0.3028915398876961 0.032601166516542435 1.5176023435436008 -0.8861951220893117 -5.45119415295725 -1.1486573691059523 1.2881968274460731 3.036461564592534 1.2702034633753954 1.325255866359595 11.812584467919976 -0.31885233847573746 1.0501405087458267 -2.1719018142026294 0.5131436846433174 1.577461460946109 -8.172010220566204 0 0 0 0 0 0 0 0 0 3.4300419488861364 4.498677882804556 5.721712913153191 1.290056282877514 -1.6654776602075345 67.30270077213534 17.737398638685328 0.035187672727453496 -0.2254620464918291 -9.159063640398516 -11.065725983166063 12.002830368466403 -15.602029590940626 5.214203083234565 35.63758020310305 -3.498926847207712 1.042765769384145 45.604175346668484 -0.03270797961701988 -0.819687319727465 22.11791095332215 -11.331556071696584 2.4317136048139747 26.54912872440903 -3.4335236830720617 1.5386124562399193 40.15506363825017 0.2501361638045198 -0.18719486070634933 17.807714944479613 -8.62325826732452 0.8983447804788486 15.808975475704223 -3.4933822819623335 0.7746114448075729 33.392356465679626 -1.5232360599756862 0.18757644620611733 15.915135781311372 -4.588864300957908 0.3365247683162641 7.878783962949576 -2.535085320961498 0.3365909635962853 20.58500606209168 -0.04960313231180271 -0.2147157300388321 13.84756576292188 -0.4679420596873003 18.647872163646646 -11.234287003285644 -31.73336171554467 0.8878083072582688 3.1673891165253467 -7.693844090278605 1.6446990264596506 1.108025344453449 -13.794149053493008 3.509436148215618 -5.68906228987375 2.8140998364666108 3.3439961392533073 -83.56072425543249 -14.489768296614153 0.023538781880669657 0.18519550069851423 4.032973359840865 -27.538062201012977 -11.365212532434636 15.841684373803352 5.385360435230893 -35.6204258369974 3.4615901850340256 1.3043935369085204 -45.59980166939014 2.5728460923803023 0.5105425858509129 -20.530975025681823 11.348047301530485 2.4399922307745907 -26.548653212418074 3.409499815165571 1.5341121983802326 -40.15490893468743 1.5894337431909598 0.5031953626773285 -19.345933968521326 8.56437535688872 0.8817106759369823 -15.809054444306163 3.5865805069105523 0.7958961532686833 -33.39322075592875 1.3340843356385623 0.1541150401473057 -12.280430820688787 4.5651418531428 0.3332396580170605 -7.878446925567524 2.575146318392769 0.3427363475287586 -20.585472146847515 0.6786627619711042 0.022958624297485616 -10.180762308935233 0.3569651570669862 18.62464934461845 11.17659972439979 31.84807323005305 0.9218754029562036 -3.1239691185273517 8.666624669231686 1.80464844268085 -0.30070077424271946 -4.762919331998061 -1.1697004516260725 11.016094420883517 -5.142092512512683 11.887177992751026 2.2672930313551682 0.9351852823194523 -9.802069761900567 -8.147397664823721 0.0000034190849049079523 -0.6084460744670571 0.0000014773671892691194 11.358756074680613 -20.27319223733662 12.251257763113433 10.415783624372237 24.110633553903465 6.515825103487669 3.413060496420635 -3.4847703737325766 -11.283597229148887 -0.000002607065420258805 -0.4701195116624586 0.0000015018462097147486
0.059002261608839035 -0.3023727410595711 0.03586073964834213 1.5295039607267162 -0.8816792426729211 -5.458763116667194 -1.146668498130452 1.2807222954469681 3.0293444198733805 1.2698578843252717 1.3102276101471784 11.811733941417893 -0.31224913721039266 1.0555956559807098 -2.171931936727552 0.5506741476908227 1.5741025123772812 -8.190755882876145 0 0 0 0 0 0 0 0 0 3.4358684229324274 4.50371660100242 5.721936087871768 1.2614306784993723 -1.666801782618409 67.3217419037498 17.735683012188687 0.03518563500949948 -0.22548122957344616 -9.169688098285294 -11.079129579061727 12.020529964951585 -15.601406148815643 5.213767992812002 35.62960401605382 -3.4983650086112275 1.042324935763716 45.59608139763376 -0.03188988557060407 -0.8196074303562019 22.10982944348901 -11.331055801934692 2.4308423983399563 26.541156812615448 -3.433041464818792 1.53809039893837 40.14697210028925 0.25085107772880866 -0.18722983893213935 17.799636430683655 -8.623471912264334 0.8984913273965173 15.811748663876728 -3.4935814791130655 0.7747400562184434 33.39510260919298 -1.523469667362821 0.18764377462319237 15.917882139327835 -4.589111043179956 0.33655305005616176 7.881570636276943 -2.5353098874827875 0.33666780455068235 20.58774410008199 -0.04985679481489894 -0.21470895316293023 13.85033474512959 -0.45985580613231875 18.646419630733234 -11.229385228190662 -31.72577267248645 0.8852861714329339 3.1688952922273814 -7.6860713380243935 1.6428351119091966 1.1097742954062502 -13.763988608768702 3.519653477039376 -5.649834611932134 2.8240027676672588 3.3358511779704245 -83.60430660276198 -14.487840829675688 0.023513045272140255 0.1851409261667171 4.030679970044803 -27.53226592353128 -11.380468967627584 15.841082048651375 5.384901212597045 -35.612442665094264 3.4610521734924147 1.303899714380142 -45.59169725232723 2.5722278188012218 0.5102083735698577 -20.522899833364093 11.347551041386273 2.4391163189334364 -26.5406399774182 3.409016112503431 1.5335919570973715 -40.14680297143239 1.588787518680045 0.5028852708098039 -19.33782269328059 8.564595753369472 0.88184425397041 -15.811804397879104 3.5867807725222143 0.79602796729465 -33.395966913531986 1.3343143117346647 0.15416968185840502 -12.283182056385936 4.565395403581657 0.33326959396190325 -7.881213678046461 2.57536704704254 0.3428149227907822 -20.588214982140332 0.678910859642273 0.022987477513478922 -10.183530728482966 0.34887253744945435 18.623178991268507 11.171720141723995 31.840485551185115 0.9193944433614585 -3.1255237232749113 8.658857580641268 1.8027924863990983 -0.3024908142224624 -4.752765335724853 -1.128215572729836 11.018000675845428 -5.141644081463165 11.829608853771044 2.267229598980045 0.9334697717754823 -9.790453846967502 -8.137074834196886 -3.6289508568308e-7 -0.6212487205809181 -6.121954045980062e-7 11.353032438742106 -20.2675238843037 12.252862801776505 10.416731078246514 24.120462878006542 6.522829509534769 3.3999846624622987 -3.491743469070189 -11.283179671159356 0.00001878792291214881 -0.46589356466089343 6.675343551961855e-7
